Coordinates
version=1
nRows=21
nColumns=27
inDegrees=yes

Units are S.I. units (second, meters, Newtons, ...)
If the header above contains a line with 'inDegrees', this indicates whether rotational values are in degrees (yes) or radians (no).

endheader
time	pelvis_rotation	pelvis_tilt	pelvis_list	pelvis_tx	pelvis_ty	pelvis_tz	hip_flexion_r	hip_adduction_r	hip_rotation_r	knee_angle_r	knee_rotation_r	knee_adduction_r	knee_angle_r_beta	ankle_angle_r	subtalar_angle_r	mtp_angle_r	hip_flexion_l	hip_adduction_l	hip_rotation_l	knee_angle_l	knee_rotation_l	knee_adduction_l	knee_angle_l_beta	ankle_angle_l	subtalar_angle_l	mtp_angle_l
      4.38000000	      9.01877065	    -22.60070323	     -0.22279574	      0.00669218	      0.44402257	     -1.11894588	    114.91017669	    -48.41152908	     26.74137808	    108.55687243	      0.00000000	      9.93997826	      1.89467485	     17.36286923	      0.00000000	      0.00000000	    118.57779326	    -31.71020820	     25.41607889	    103.36676992	      0.00000000	     -9.95788617	      1.80409047	     11.66628861	      0.00000000	      0.00000000
      4.38500000	      9.07489049	    -22.57383302	     -0.21869202	      0.00691303	      0.44338832	     -1.11905269	    114.93818996	    -48.40641761	     26.87182031	    108.63480470	      0.00000000	      9.93991716	      1.89603502	     17.42940525	      0.00000000	      0.00000000	    118.65553498	    -31.66487030	     25.46084382	    103.46136003	      0.00000000	     -9.95797108	      1.80574138	     11.66363411	      0.00000000	      0.00000000
      4.39000000	      9.12913518	    -22.53364856	     -0.22376166	      0.00716955	      0.44281033	     -1.11915241	    114.94459884	    -48.41749369	     26.98126133	    108.70930561	      0.00000000	      9.93983329	      1.89733531	     17.46681498	      0.00000000	      0.00000000	    118.71158350	    -31.61922802	     25.50972309	    103.55132997	      0.00000000	     -9.95804365	      1.80731165	     11.67393107	      0.00000000	      0.00000000
      4.39500000	      9.21151599	    -22.53595253	     -0.22337225	      0.00739408	      0.44227406	     -1.11927303	    114.99054375	    -48.45509254	     27.09630797	    108.77311334	      0.00000000	      9.93974473	      1.89844897	     17.51869394	      0.00000000	      0.00000000	    118.80082376	    -31.53335012	     25.55097543	    103.63754100	      0.00000000	     -9.95810220	      1.80881632	     11.67402613	      0.00000000	      0.00000000
      4.40000000	      9.25860373	    -22.47726799	     -0.22009218	      0.00766434	      0.44176769	     -1.11937677	    114.97603511	    -48.45368324	     27.20992492	    108.84043876	      0.00000000	      9.93957286	      1.89962402	     17.55118083	      0.00000000	      0.00000000	    118.81259058	    -31.49702037	     25.58436796	    103.71984151	      0.00000000	     -9.95816624	      1.81025273	     11.72197400	      0.00000000	      0.00000000
      4.40500000	      9.32382197	    -22.46751520	     -0.21264047	      0.00791260	      0.44134890	     -1.11951076	    115.00402403	    -48.47637247	     27.31461092	    108.89728829	      0.00000000	      9.93945251	      1.90061623	     17.57094341	      0.00000000	      0.00000000	    118.86260101	    -31.43453514	     25.60463308	    103.79429855	      0.00000000	     -9.95820059	      1.81155225	     11.72542250	      0.00000000	      0.00000000
      4.41000000	      9.40737371	    -22.45608593	     -0.20073009	      0.00814031	      0.44097918	     -1.11964251	    115.03794142	    -48.51333724	     27.42622802	    108.95206535	      0.00000000	      9.93928967	      1.90157227	     17.56563776	      0.00000000	      0.00000000	    118.89450256	    -31.35174097	     25.60835129	    103.86351251	      0.00000000	     -9.95821326	      1.81276027	     11.76153338	      0.00000000	      0.00000000
      4.41500000	      9.43641685	    -22.45659603	     -0.19355616	      0.00837289	      0.44060332	     -1.11974832	    115.05421573	    -48.48942707	     27.52252889	    109.00166216	      0.00000000	      9.93911949	      1.90243789	     17.64863293	      0.00000000	      0.00000000	    118.94537599	    -31.32452333	     25.63910822	    103.93094098	      0.00000000	     -9.95824315	      1.81393711	     11.77516252	      0.00000000	      0.00000000
      4.42000000	      9.49899038	    -22.46149451	     -0.18716357	      0.00858282	      0.44033894	     -1.11988907	    115.06728349	    -48.50847608	     27.60035864	    109.03766820	      0.00000000	      9.93893062	      1.90306632	     17.66141796	      0.00000000	      0.00000000	    118.97486032	    -31.24836367	     25.65109510	    103.98762687	      0.00000000	     -9.95825487	      1.81492647	     11.80507517	      0.00000000	      0.00000000
      4.42500000	      9.58921047	    -22.47806344	     -0.17727739	      0.00880722	      0.44010879	     -1.12002316	    115.07032030	    -48.55836438	     27.67099090	    109.07197506	      0.00000000	      9.93875138	      1.90366509	     17.75707052	      0.00000000	      0.00000000	    119.01131292	    -31.14623127	     25.65177161	    104.04455300	      0.00000000	     -9.95821548	      1.81592002	     11.82729187	      0.00000000	      0.00000000
      4.43000000	      9.60129297	    -22.49101754	     -0.16384678	      0.00897912	      0.43992003	     -1.12014065	    115.11478242	    -48.52023763	     27.75336945	    109.10443378	      0.00000000	      9.93848549	      1.90423160	     17.70343288	      0.00000000	      0.00000000	    119.03550504	    -31.13147530	     25.65764850	    104.08599227	      0.00000000	     -9.95823195	      1.81664327	     11.85031524	      0.00000000	      0.00000000
      4.43500000	      9.65598289	    -22.54146713	     -0.14555973	      0.00912448	      0.43976744	     -1.12029429	    115.17649089	    -48.52530629	     27.83672838	    109.12909471	      0.00000000	      9.93822555	      1.90466201	     17.72292428	      0.00000000	      0.00000000	    119.08161495	    -31.05442742	     25.65039214	    104.13106283	      0.00000000	     -9.95818178	      1.81742990	     11.89827627	      0.00000000	      0.00000000
      4.44000000	      9.70696349	    -22.56280970	     -0.13522013	      0.00925807	      0.43969412	     -1.12042447	    115.18989779	    -48.53124179	     27.89319853	    109.14466385	      0.00000000	      9.93797176	      1.90493375	     17.72288182	      0.00000000	      0.00000000	    119.09921701	    -30.98522375	     25.64582868	    104.16341236	      0.00000000	     -9.95814511	      1.81799451	     11.89775266	      0.00000000	      0.00000000
      4.44500000	      9.75534297	    -22.61416779	     -0.10027466	      0.00936984	      0.43963968	     -1.12056859	    115.26404761	    -48.52258955	     27.98370850	    109.15955525	      0.00000000	      9.93766029	      1.90519365	     17.72356529	      0.00000000	      0.00000000	    119.12179896	    -30.92300284	     25.61302220	    104.19261227	      0.00000000	     -9.95809065	      1.81850414	     11.92367358	      0.00000000	      0.00000000
      4.45000000	      9.80586172	    -22.66122871	     -0.07678382	      0.00945473	      0.43964981	     -1.12070586	    115.30797079	    -48.52159532	     28.04572039	    109.16616934	      0.00000000	      9.93734682	      1.90530909	     17.72418252	      0.00000000	      0.00000000	    119.13810485	    -30.85091308	     25.58643929	    104.21379693	      0.00000000	     -9.95802673	      1.81887388	     11.94951633	      0.00000000	      0.00000000
      4.45500000	      9.87490094	    -22.71141537	     -0.04911442	      0.00954548	      0.43968444	     -1.12084702	    115.36423941	    -48.55043327	     28.11092243	    109.17063490	      0.00000000	      9.93704409	      1.90538703	     17.71180959	      0.00000000	      0.00000000	    119.15002220	    -30.75893284	     25.54972687	    104.23037865	      0.00000000	     -9.95793895	      1.81916329	     11.95556303	      0.00000000	      0.00000000
      4.46000000	      9.92735531	    -22.77031350	     -0.02517103	      0.00956144	      0.43978656	     -1.12098377	    115.41229016	    -48.54760812	     28.16009254	    109.16399450	      0.00000000	      9.93666982	      1.90527113	     17.71171365	      0.00000000	      0.00000000	    119.16859772	    -30.67812462	     25.51286316	    104.23955748	      0.00000000	     -9.95784552	      1.81932349	     11.95920118	      0.00000000	      0.00000000
      4.46500000	      9.96579989	    -22.84564005	      0.00549169	      0.00955142	      0.43992850	     -1.12111629	    115.48182863	    -48.53061934	     28.21120892	    109.15856434	      0.00000000	      9.93630024	      1.90517635	     17.69479081	      0.00000000	      0.00000000	    119.19347779	    -30.61632438	     25.46861544	    104.24175002	      0.00000000	     -9.95775134	      1.81936176	     11.97684215	      0.00000000	      0.00000000
      4.47000000	     10.00813550	    -22.91362438	      0.03137202	      0.00950799	      0.44008501	     -1.12123361	    115.52585602	    -48.51274565	     28.24557051	    109.14486300	      0.00000000	      9.93591433	      1.90493722	     17.70224612	      0.00000000	      0.00000000	    119.21036665	    -30.54540563	     25.42659681	    104.24103685	      0.00000000	     -9.95764499	      1.81934931	     11.99742466	      0.00000000	      0.00000000
      4.47500000	     10.06372714	    -22.99058483	      0.06696645	      0.00944776	      0.44033141	     -1.12136053	    115.59771188	    -48.51511217	     28.29093360	    109.12401868	      0.00000000	      9.93546551	      1.90457342	     17.65948732	      0.00000000	      0.00000000	    119.22212577	    -30.46175885	     25.36257191	    104.22773132	      0.00000000	     -9.95750779	      1.81911708	     11.97612308	      0.00000000	      0.00000000
      4.48000000	     10.11264997	    -23.06131844	      0.09088333	      0.00934686	      0.44059720	     -1.12147231	    115.63287448	    -48.50927147	     28.30434891	    109.10091057	      0.00000000	      9.93507170	      1.90417011	     17.65430751	      0.00000000	      0.00000000	    119.22719480	    -30.37698384	     25.31153655	    104.20993672	      0.00000000	     -9.95738883	      1.81880651	     11.96538008	      0.00000000	      0.00000000
